# xmcd CD database file generated by MAGIX_Freedb v0.9beta0
# 
# Track frame offsets:
#      150
#      11927
#      28791
#      43708
#      54322
#      73105
#      84658
#      102987
#      118307
#      129575
#      147510
#      165379
#      180518
#      194716
#      211436
#      228059
#      242203
#      259963
#      273910
#      291224
#      304607
#      320086
#      339706
# 
# Disc length: 4778 seconds
# 
# Revision: 0 
# Processed by: cddbd v1.4PL0 Copyright (c) Steve Scherf et al.
# Submitted via: MAGIX_Freedb v0.9beta0
# 
DISCID=6512a817
DTITLE=Heidi Hauge - The Best Of
DYEAR=1900
DGENRE=
TTITLE0=Heidi Hauge - Aldri min sjel
TTITLE1=Heidi Hauge - Blanket on the ground
TTITLE2=Heidi Hauge - Blue eyes crying in the rain
TTITLE3=Heidi Hauge - Country girl again
TTITLE4=Heidi Hauge - Crystal chandeliers
TTITLE5=Heidi Hauge - Diggy liggi lo
TTITLE6=Heidi Hauge - Din samvitti
TTITLE7=Heidi Hauge - Don't tell me what to do
TTITLE8=Heidi Hauge - Hello little bluebird
TTITLE9=Heidi Hauge - I'm so fraid of losing you again
TTITLE10=Heidi Hauge - Kom ta min hand
TTITLE11=Heidi Hauge - Lay down beside me
TTITLE12=Heidi Hauge - Mama say a prayer
TTITLE13=Heidi Hauge - Mama's crazy
TTITLE14=Heidi Hauge - Mot ingenting
TTITLE15=Heidi Hauge - Nidelven stille
TTITLE16=Heidi Hauge - Seven spanisch angels
TTITLE17=Heidi Hauge - She never spoken spanisch to me
TTITLE18=Heidi Hauge - Take me back
TTITLE19=Heidi Hauge - The bed you made for me
TTITLE20=Heidi Hauge - Turn it on,turn it up
TTITLE21=Heidi Hauge - Yellow roses
TTITLE22=Heidi Hauge - You got gold
EXTD=
EXTT0=
EXTT1=
EXTT2=
EXTT3=
EXTT4=
EXTT5=
EXTT6=
EXTT7=
EXTT8=
EXTT9=
EXTT10=
EXTT11=
EXTT12=
EXTT13=
EXTT14=
EXTT15=
EXTT16=
EXTT17=
EXTT18=
EXTT19=
EXTT20=
EXTT21=
EXTT22=
PLAYORDER=
